Coordinates
version=1
nRows=11
nColumns=42
inDegrees=yes

Units are S.I. units (second, meters, Newtons, ...)
If the header above contains a line with 'inDegrees', this indicates whether rotational values are in degrees (yes) or radians (no).

endheader
time	pelvis_tilt	pelvis_list	pelvis_rotation	pelvis_tx	pelvis_ty	pelvis_tz	hip_flexion_r	hip_adduction_r	hip_rotation_r	knee_angle_r	knee_adduction_r	knee_angle_r_beta	ankle_angle_r	subtalar_angle_r	mtp_angle_r	hip_flexion_l	hip_adduction_l	hip_rotation_l	knee_angle_l	knee_adduction_l	knee_angle_l_beta	ankle_angle_l	subtalar_angle_l	mtp_angle_l	lumbar_extension	lumbar_bending	lumbar_rotation	arm_flex_r	arm_add_r	arm_rot_r	elbow_flex_r	pro_sup_r	wrist_flex_r	wrist_dev_r	arm_flex_l	arm_add_l	arm_rot_l	elbow_flex_l	pro_sup_l	wrist_flex_l	wrist_dev_l
      1.32000000	     21.61947623	      3.21809180	      3.00494458	      0.02701726	      0.93843430	     -0.26195226	    -23.63957328	     -7.77447044	    -24.79210544	     52.38045754	    -11.28392840	      0.91421145	     -2.19500069	     19.28579719	     -7.68039126	     -8.77035734	      8.37552144	     -6.63584172	     23.36199037	     -6.61019414	      0.40774365	     17.43518771	      4.17945508	     -7.68039126	    -34.01214818	     -3.68370599	      4.58275964	      9.59895695	    -11.49795639	    -22.49737623	     29.10333703	     90.00000001	      0.00000000	      0.00000000	     -1.90881387	    -16.68142209	      3.56056896	     68.22982101	     90.00000001	      0.00000000	      0.00000000
      1.33000000	     21.44055021	      3.15267469	      2.86222975	      0.03196387	      0.93846325	     -0.26354261	    -22.16003016	     -8.06191596	    -23.33171905	     54.93449747	    -10.52793192	      0.95878785	     -1.25069793	     14.14314049	     -7.66613316	     -8.85255218	      8.39194700	     -6.45055072	     23.55447285	     -6.38176900	      0.41110310	     17.91989110	      3.88094696	     -7.66613316	    -33.91232988	     -3.75571285	      4.68988088	      9.36549850	    -11.44232233	    -24.01437070	     28.56151340	     90.00000001	      0.00000000	      0.00000000	     -1.71754376	    -16.81905952	      3.71375469	     68.43957922	     90.00000001	      0.00000000	      0.00000000
      1.34000000	     21.59901923	      2.99383242	      2.84694354	      0.03707886	      0.93904780	     -0.26520662	    -21.16945856	     -8.01769993	    -23.64422798	     56.49626040	    -11.35883978	      0.98604576	     -0.07405665	     13.04823414	     -7.66257964	     -9.40628134	      8.24582262	     -6.05496080	     23.58186160	     -6.08512229	      0.41158113	     18.27769181	      3.66904211	     -7.66257964	    -34.15558610	     -3.64432278	      4.73839956	      8.88888636	    -11.58722866	    -24.29327592	     28.40001093	     90.00000001	      0.00000000	      0.00000000	     -1.54543646	    -16.89600828	      3.69746814	     68.70797770	     90.00000001	      0.00000000	      0.00000000
      1.35000000	     21.72714475	      2.84096555	      2.80760648	      0.04197833	      0.93961109	     -0.26682491	    -20.11214317	     -7.99427944	    -23.92523760	     57.95630262	    -12.08787258	      1.01152830	      1.34723353	     11.77300873	     -7.65909342	     -9.92170377	      8.13073253	     -5.53146269	     23.61332272	     -5.77025093	      0.41213023	     18.49288244	      3.15036848	     -7.65909342	    -34.38657811	     -3.54086497	      4.75473452	      8.50371316	    -11.70313052	    -24.62638340	     28.20474826	     90.00000001	      0.00000000	      0.00000000	     -1.35706479	    -17.00223247	      3.70249931	     68.92767018	     90.00000001	      0.00000000	      0.00000000
      1.36000000	     21.94699839	      2.63035019	      2.73758473	      0.04677093	      0.94039261	     -0.26828510	    -19.15898412	     -7.86960878	    -24.20118628	     59.11639681	    -12.79972249	      1.03177577	      2.76070515	     10.77943112	     -7.65669932	    -10.56560774	      7.94795584	     -5.07536129	     23.54832305	     -5.46806423	      0.41099577	     18.66339481	      2.67845535	     -7.65669932	    -34.73121921	     -3.39354843	      4.84715450	      8.12698117	    -11.84411877	    -24.89218956	     27.99976323	     90.00000001	      0.00000000	      0.00000000	     -1.14625055	    -17.06562095	      3.66984524	     69.13483857	     90.00000001	      0.00000000	      0.00000000
      1.37000000	     21.96798035	      2.76580810	      2.67894533	      0.05115025	      0.94097038	     -0.27008301	    -17.95720634	     -8.21235930	    -24.20590875	     60.41709916	    -13.02705573	      1.05447730	      4.37438023	      9.02891035	     -7.64584296	    -11.21127775	      8.24926358	     -3.24473407	     23.10895072	     -4.78710078	      0.40332728	     17.82111291	     -0.32557406	     -7.64584296	    -34.92008513	     -3.56773776	      4.66965805	      8.09410643	    -11.74538056	    -26.64096987	     27.49252115	     90.00000001	      0.00000000	      0.00000000	     -0.92711169	    -17.20714403	      3.72368145	     69.25032738	     90.00000001	      0.00000000	      0.00000000
      1.38000000	     22.25487558	      2.50282716	      2.60183351	      0.05578199	      0.94186080	     -0.27141803	    -17.08888387	     -7.93570224	    -24.51358276	     61.04245039	    -13.74653693	      1.06539174	      5.83036061	      8.47319408	     -7.64419137	    -11.96106215	      8.00724938	     -3.02856362	     22.90828146	     -4.60879684	      0.39982494	     18.03726110	     -0.40548996	     -7.64419137	    -35.30983233	     -3.36694391	      4.71895951	      7.77634644	    -11.87849444	    -26.78924987	     27.33141997	     90.00000001	      0.00000000	      0.00000000	     -0.70908025	    -17.27566668	      3.64344400	     69.42091858	     90.00000001	      0.00000000	      0.00000000
      1.39000000	     22.29952748	      2.53624244	      2.57921606	      0.06014388	      0.94241705	     -0.27288485	    -15.92523419	     -7.96826735	    -25.16721204	     61.62282222	    -14.68797258	      1.07552114	      7.80832864	      8.42536070	     -7.63525396	    -12.56457928	      8.12232277	     -1.99227611	     22.48386850	     -4.17550805	      0.39241753	     17.70667641	     -1.79991013	     -7.63525396	    -35.51627667	     -3.45965939	      4.57620785	      7.63964563	    -11.81100369	    -28.04777595	     26.97772531	     90.00000001	      0.00000000	      0.00000000	     -0.56397668	    -17.44118328	      3.63459730	     69.57682467	     90.00000001	      0.00000000	      0.00000000
      1.40000000	     22.46820756	      2.32261591	      2.50504997	      0.06453553	      0.94314792	     -0.27402261	    -14.91633040	     -7.62262214	    -25.30361284	     61.85762845	    -15.28056717	      1.07961928	      9.27322866	      7.99830745	     -7.63327897	    -13.20428047	      7.93293763	     -1.89357671	     22.17540932	     -4.03550606	      0.38703391	     17.85921509	     -1.81900655	     -7.63327897	    -35.80978324	     -3.33965053	      4.59960279	      7.34844689	    -11.89946561	    -28.20786342	     26.80032182	     90.00000001	      0.00000000	      0.00000000	     -0.39743213	    -17.55120245	      3.54903918	     69.69266111	     90.00000001	      0.00000000	      0.00000000
      1.41000000	     22.54479598	      2.32023946	      2.48254012	      0.06878012	      0.94371528	     -0.27549217	    -13.82098703	     -7.55519756	    -25.72346729	     61.91706140	    -15.98613057	      1.08065658	     10.91199414	      8.70305295	     -7.62491129	    -13.82578254	      8.02555153	     -1.36883758	     21.70579047	     -3.85289622	      0.37883751	     17.69358942	     -2.40046949	     -7.62491129	    -36.02595281	     -3.37367059	      4.44264955	      7.24173604	    -11.86477059	    -29.36245914	     26.46054691	     90.00000001	      0.00000000	      0.00000000	     -0.24650937	    -17.68325244	      3.51757323	     69.82078319	     90.00000001	      0.00000000	      0.00000000
      1.42000000	     22.58165746	      2.14253950	      2.43958773	      0.07291471	      0.94416800	     -0.27670134	    -12.66590723	     -7.19827533	    -25.63520102	     61.81435171	    -16.31233957	      1.07886396	     11.95089929	      8.47345487	     -7.62319906	    -14.27694709	      7.93262670	     -1.45814298	     21.42877377	     -3.90273957	      0.37400266	     17.88323707	     -2.36728801	     -7.62319906	    -36.19358246	     -3.26518544	      4.39919488	      6.96179613	    -11.94370363	    -29.45111204	     26.33874750	     90.00000001	      0.00000000	      0.00000000	     -0.10035791	    -17.77799940	      3.45694396	     69.89770641	     90.00000001	      0.00000000	      0.00000000
